<?xml version="1.0" encoding="utf-8"?><!-- Uploaded to: SVG Repo, www.svgrepo.com, Generator: SVG Repo Mixer Tools -->
<svg fill="#000000" width="800px" height="800px" viewBox="0 0 24 24" id="sign" data-name="Flat Color" xmlns="http://www.w3.org/2000/svg" class="icon flat-color"><path id="secondary" d="M17.81,11.42l-3.35-4.7a3,3,0,1,0-4.92,0l-3.35,4.7a1,1,0,0,0,1.62,1.16l3.36-4.7a2.93,2.93,0,0,0,1.66,0l3.36,4.7A1,1,0,0,0,17,13a1,1,0,0,0,.58-.19A1,1,0,0,0,17.81,11.42ZM12,6a1,1,0,1,1,1-1A1,1,0,0,1,12,6Z" style="fill: rgb(44, 169, 188);"></path><rect id="primary" x="2" y="11" width="20" height="11" rx="2" style="fill: rgb(0, 0, 0);"></rect></svg>